<?xml version="1.0" encoding="utf-8"?>
<!-- Generator: Adobe Illustrator 24.3.0, SVG Export Plug-In . SVG Version: 6.00 Build 0)  -->
<svg version="1.1" id="图层_1" xmlns="http://www.w3.org/2000/svg" xmlns:xlink="http://www.w3.org/1999/xlink" x="0px" y="0px"
	 viewBox="0 0 4096 4096" style="enable-background:new 0 0 4096 4096;" xml:space="preserve">
<g id="document" transform="scale(13.653333333333334 13.653333333333334) translate(150.0 150.0)">
	<path d="M71.4-70l37.6-65l-26-15L45.4-85C24.6-49.2,37-3.2,73,17.4l15-26C66.4-21,59-48.4,71.4-70z"/>
	<path d="M150-120v-30H-0.8v30H150z"/>
	<path d="M-150-105c0,11.6,4.4,22,11.4,30c-7.2,8-11.4,18.4-11.4,30c0,24.8,20.2,45,45.2,45H0.8v-30h-105.6c-8.2,0-15-6.8-15-15
		s6.8-15,15-15H0.8v-30h-105.6c-8.2,0-15-6.8-15-15s6.8-15,15-15H0.8v-30h-105.6C-129.8-150-150-129.8-150-105z"/>
	<path d="M76.8,70l-37.6,65l26,15l37.6-65c21-35.8,8.6-81.8-27.4-102.4l-15,26C82,21,89.4,48.4,76.8,70z"/>
	<path d="M-0.8,120v30H150v-30H-0.8z"/>
	<path d="M0.8,0h-30.2v150H0.8V0z M-59.6,0h-30.2v150h30.2L-59.6,0L-59.6,0z M-119.8,0H-150v150h30.2V0z"/>
</g>
</svg>
